<svg width="200" height="200" viewBox="0 0 200 200" fill="none" xmlns="http://www.w3.org/2000/svg">
<g clip-path="url(#clip0_16_5)">
<mask id="mask0_16_5" style="mask-type:luminance" maskUnits="userSpaceOnUse" x="0" y="0" width="200" height="201">
<path d="M200 0.182617H0V200.183H200V0.182617Z" fill="white"/>
</mask>
<g mask="url(#mask0_16_5)">
<path d="M116.571 38.8554L125.311 46.5328C125.994 47.1328 126.818 47.5501 127.707 47.7461L139.079 50.2518C140.843 50.6404 142.294 51.8861 142.94 53.5671L147.105 64.4034C147.43 65.2498 147.966 66.0008 148.662 66.5851L157.573 74.0651C158.955 75.2254 159.66 76.9994 159.449 78.7851L158.084 90.2971C157.977 91.1964 158.102 92.1084 158.446 92.9474L162.855 103.688C163.538 105.354 163.335 107.25 162.314 108.731L155.732 118.283C155.218 119.029 154.903 119.893 154.817 120.794L153.713 132.335C153.541 134.126 152.477 135.708 150.881 136.546L140.59 141.948C139.786 142.37 139.104 142.989 138.606 143.746L132.243 153.443C131.256 154.947 129.574 155.855 127.768 155.857L116.125 155.873C115.216 155.874 114.322 156.105 113.528 156.545L103.362 162.177C101.786 163.05 99.8718 163.074 98.2698 162.241L87.9431 156.866C87.1364 156.446 86.2361 156.237 85.3271 156.259L73.6884 156.535C71.8831 156.578 70.1754 155.713 69.1444 154.234L62.4991 144.7C61.9801 143.956 61.2794 143.354 60.4634 142.953L50.0184 137.81C48.3981 137.013 47.2878 135.458 47.0644 133.672L45.6224 122.164C45.5098 121.265 45.1698 120.408 44.6341 119.675L37.7751 110.292C36.7111 108.837 36.4528 106.947 37.0874 105.265L41.1798 94.4178C41.4994 93.5704 41.5974 92.6554 41.4644 91.7591L39.7631 80.2851C39.4991 78.5054 40.1518 76.7148 41.4994 75.5204L50.1881 67.8194C50.8668 67.2178 51.3808 66.4544 51.6811 65.5998L55.5271 54.6631C56.1234 52.9664 57.5374 51.6848 59.2898 51.2521L70.5844 48.4618C71.4668 48.2441 72.2784 47.8061 72.9434 47.1894L81.4554 39.2958C82.7758 38.0711 84.6274 37.5918 86.3824 38.0198L97.6958 40.7798C98.5794 40.9951 99.5034 40.9841 100.381 40.7464L111.609 37.7034C113.351 37.2314 115.216 37.6644 116.571 38.8554Z" fill="#23A948"/>
<path d="M71.7095 100.406L90.4228 119.119C90.4228 119.119 115.605 93.9366 124.9 84.6406" stroke="white" stroke-width="7" stroke-miterlimit="10"/>
<mask id="mask1_16_5" style="mask-type:luminance" maskUnits="userSpaceOnUse" x="6" y="6" width="189" height="189">
<path d="M6.00146 6.18311H194.001V194.183H6.00146V6.18311Z" fill="white"/>
</mask>
<g mask="url(#mask1_16_5)">
<path d="M97.3364 12.2191C97.3364 11.104 97.3364 10.4131 97.3364 10.4131" stroke="#23A948" stroke-width="3.76" stroke-miterlimit="10"/>
<path d="M97.4941 185.096C97.4941 185.096 97.4941 184.405 97.4941 183.29" stroke="#23A948" stroke-width="3.76" stroke-miterlimit="10"/>
<path d="M182.952 97.6763C184.067 97.6763 184.758 97.6763 184.758 97.6763" stroke="#23A948" stroke-width="3.76" stroke-miterlimit="10"/>
<path d="M10.0723 97.833C10.0723 97.833 10.7632 97.833 11.8783 97.833" stroke="#23A948" stroke-width="3.76" stroke-miterlimit="10"/>
<path d="M157.952 158.182C158.74 158.97 159.229 159.459 159.229 159.459" stroke="#23A948" stroke-width="3.76" stroke-miterlimit="10"/>
<path d="M35.5981 36.0498C35.5981 36.0498 36.0866 36.5386 36.875 37.327" stroke="#23A948" stroke-width="3.76" stroke-miterlimit="10"/>
<path d="M157.844 37.2163C158.633 36.4279 159.121 35.9395 159.121 35.9395" stroke="#23A948" stroke-width="3.76" stroke-miterlimit="10"/>
<path d="M35.7104 159.57C35.7104 159.57 36.1989 159.081 36.9873 158.293" stroke="#23A948" stroke-width="3.76" stroke-miterlimit="10"/>
</g>
</g>
</g>
<defs>
<clipPath id="clip0_16_5">
<rect width="200" height="200" fill="white"/>
</clipPath>
</defs>
</svg>
