<svg width="16" height="15" viewBox="0 0 16 15" fill="none" xmlns="http://www.w3.org/2000/svg">
<path d="M15.5112 5.77177C14.9096 4.7866 14.1507 3.90662 13.2647 3.16674L15.1307 1.30077C15.3864 1.03603 15.379 0.614152 15.1143 0.358466C14.856 0.109027 14.4466 0.109027 14.1883 0.358466L12.1591 2.39037C10.9012 1.64321 9.46303 1.25376 7.99998 1.26413C3.87417 1.26413 1.52304 4.08843 0.488772 5.7718C-0.162924 6.82588 -0.162924 8.15776 0.488772 9.21187C1.09039 10.197 1.84927 11.077 2.73528 11.8169L0.869318 13.6829C0.604572 13.9385 0.597231 14.3605 0.852918 14.6252C1.1086 14.8899 1.53051 14.8973 1.79522 14.6416C1.80078 14.6362 1.80625 14.6307 1.81162 14.6252L3.84553 12.5913C5.1019 13.3383 6.53831 13.7284 7.99998 13.7195C12.1258 13.7195 14.4769 10.8952 15.5112 9.21184C16.1629 8.15776 16.1629 6.82588 15.5112 5.77177ZM4.0015 7.49182C3.99772 5.28717 5.78184 3.49689 7.98649 3.49311C8.82065 3.49168 9.63431 3.75161 10.3132 4.23637L9.34552 5.20401C8.93929 4.95904 8.47437 4.82846 8.00002 4.82615C6.52781 4.82615 5.33435 6.01961 5.33435 7.49182C5.33666 7.96617 5.46724 8.43109 5.71221 8.83732L4.74457 9.80496C4.26137 9.13043 4.00153 8.32154 4.0015 7.49182ZM8.00002 11.4903C7.17029 11.4903 6.3614 11.2305 5.68687 10.7473L6.65451 9.77962C7.06074 10.0246 7.52566 10.1552 8.00002 10.1575C9.47222 10.1575 10.6657 8.96402 10.6657 7.49182C10.6634 7.01746 10.5328 6.55254 10.2878 6.14632L11.2555 5.17868C12.5366 6.97282 12.1208 9.4659 10.3267 10.7471C9.64784 11.2318 8.83417 11.4918 8.00002 11.4903Z" fill="#0F0F0F"/>
</svg>
