<svg width="16" height="17" viewBox="0 0 16 17" fill="none" xmlns="http://www.w3.org/2000/svg">
<path d="M8.00016 15.1666C4.31826 15.1666 1.3335 12.1818 1.3335 8.49998C1.3335 4.81808 4.31826 1.83331 8.00016 1.83331C11.682 1.83331 14.6668 4.81808 14.6668 8.49998C14.6668 12.1818 11.682 15.1666 8.00016 15.1666ZM8.00016 13.8333C10.9457 13.8333 13.3335 11.4455 13.3335 8.49998C13.3335 5.55446 10.9457 3.16665 8.00016 3.16665C5.05464 3.16665 2.66683 5.55446 2.66683 8.49998C2.66683 11.4455 5.05464 13.8333 8.00016 13.8333ZM7.3335 5.16665H8.66683V6.49998H7.3335V5.16665ZM7.3335 7.83331H8.66683V11.8333H7.3335V7.83331Z" fill="#23A948"/>
</svg>
