<svg width="17" height="16" viewBox="0 0 17 16" fill="none" xmlns="http://www.w3.org/2000/svg">
<path d="M3.17 10.6668V2.66683H1.83667V1.3335H3.83667C4.20486 1.3335 4.50334 1.63198 4.50334 2.00016V10.0002H12.7956L14.1289 4.66683H5.83667V3.3335H14.9828C15.351 3.3335 15.6495 3.63198 15.6495 4.00016C15.6495 4.05467 15.6428 4.10898 15.6296 4.16186L13.9629 10.8285C13.8888 11.1253 13.6221 11.3335 13.3161 11.3335H3.83667C3.46848 11.3335 3.17 11.035 3.17 10.6668ZM4.50334 15.3335C3.76696 15.3335 3.17 14.7366 3.17 14.0002C3.17 13.2638 3.76696 12.6668 4.50334 12.6668C5.23972 12.6668 5.83667 13.2638 5.83667 14.0002C5.83667 14.7366 5.23972 15.3335 4.50334 15.3335ZM12.5033 15.3335C11.7669 15.3335 11.17 14.7366 11.17 14.0002C11.17 13.2638 11.7669 12.6668 12.5033 12.6668C13.2397 12.6668 13.8367 13.2638 13.8367 14.0002C13.8367 14.7366 13.2397 15.3335 12.5033 15.3335Z" fill="white"/>
</svg>
